<svg xmlns="http://www.w3.org/2000/svg" fill="#000000" viewBox="0 0 58.391 100" x="0px" y="0px" width="300px" height="300px" xmlns:xml="http://www.w3.org/XML/1998/namespace" xml:space="preserve" enable-background="new 0 0 58.391 100" xmlns:xlink="http://www.w3.org/1999/xlink" version="1.1"><circle cx="38.721" cy="33.621" r="4.148" /><path d="M 45.875 29.436 C 57.268 8.877 59.217 0.677 58.122 0.045 c -1.091 -0.631 -7.217 5.15 -19.313 25.282 C 41.822 25.359 44.447 27.003 45.875 29.436 Z" /><path d="M 30.424 33.621 c 0 -1.486 0.397 -2.879 1.083 -4.087 C 8.059 29.949 0 32.359 0 33.621 c 0 1.261 8.058 3.672 31.505 4.086 C 30.821 36.5 30.424 35.108 30.424 33.621 Z" /><path d="M 45.884 37.794 c -1.424 2.436 -4.046 4.083 -7.061 4.119 C 50.911 62.021 57.03 67.798 58.124 67.167 C 59.217 66.535 57.271 58.34 45.884 37.794 Z" /><path d="M 34.573 42.889 v 1.795 V 100 h 8.297 V 56.07 C 40.49 52.552 37.745 48.22 34.573 42.889 Z" /></svg>