<svg xmlns="http://www.w3.org/2000/svg" viewBox="0 0 64 64"><defs><linearGradient id="0" gradientUnits="userSpaceOnUse" y1="227.63" x2="0" y2="171.63"><stop stop-color="rgb(47, 174, 97)" /><stop stop-color="rgb(75, 223, 136)" offset="1" /></linearGradient></defs><g transform="matrix(0.92857 0 0 0.92857 -676.99 -152.79)"><path fill="url(#0)" d="m 789.32 182.93 c -0.017 -1.302 -1.019 -2.377 -2.315 -2.496 c -10.772 -1.01 -19.563 -6.764 -22.461 -8.87 c -0.606 -0.442 -1.426 -0.442 -2.032 0 c -2.893 2.106 -11.683 7.863 -22.456 8.87 c -1.296 0.119 -2.293 1.194 -2.315 2.496 c -0.13 8.497 1.234 37.34 25.14 43.762 c 0.425 0.113 0.872 0.113 1.296 0 c 23.905 -6.413 25.27 -35.27 25.14 -43.762" /></g><text id="svg_3" font-family="Sans-serif" font-size="24px" fill="#ffffff" stroke="#000000" stroke-width="0" text-anchor="middle" transform="matrix(1.43331 0 0 1.30833 -13.1427 -12.2527)" x="31.4563" y="42.1519" xmlns:xml="http://www.w3.org/XML/1998/namespace" xml:space="preserve">A</text></svg>